<svg width="24" height="25" viewBox="0 0 24 25" fill="none" xmlns="http://www.w3.org/2000/svg">
<g clip-path="url(#clip0_287_512)">
<path d="M22 7.92383V17.3888C22 18.154 21.7077 18.8903 21.1827 19.4471C20.6578 20.0038 19.9399 20.3389 19.176 20.3838L19 20.3888H5C4.23479 20.3889 3.49849 20.0965 2.94174 19.5715C2.38499 19.0466 2.04989 18.3287 2.005 17.5648L2 17.3888V7.92383L11.445 14.2208L11.561 14.2868C11.6977 14.3536 11.8478 14.3883 12 14.3883C12.1522 14.3883 12.3023 14.3536 12.439 14.2868L12.555 14.2208L22 7.92383Z" fill="#14121F"/>
<path d="M18.9998 4.38867C20.0798 4.38867 21.0268 4.95867 21.5548 5.81567L11.9998 12.1857L2.44482 5.81567C2.69555 5.40844 3.04004 5.06707 3.44953 4.82005C3.85903 4.57304 4.32166 4.42753 4.79882 4.39567L4.99982 4.38867H18.9998Z" fill="#14121F"/>
</g>
<defs>
<clipPath id="clip0_287_512">
<rect width="24" height="24" fill="white" transform="translate(0 0.388672)"/>
</clipPath>
</defs>
</svg>
