<svg width="18" height="19" viewBox="0 0 18 19" fill="none" xmlns="http://www.w3.org/2000/svg">
<path d="M16.23 12.6484L13.69 12.3584C13.3914 12.3234 13.0886 12.3564 12.8046 12.4552C12.5206 12.5539 12.2626 12.7157 12.05 12.9284L10.21 14.7684C7.37123 13.3247 5.06382 11.0173 3.62004 8.17844L5.47004 6.32844C5.90004 5.89844 6.11004 5.29844 6.04004 4.68844L5.75004 2.16844C5.69335 1.68061 5.45923 1.23067 5.09228 0.904286C4.72532 0.577897 4.25115 0.397855 3.76004 0.398439H2.03004C0.900041 0.398439 -0.0399593 1.33844 0.0300407 2.46844C0.560041 11.0084 7.39004 17.8284 15.92 18.3584C17.05 18.4284 17.99 17.4884 17.99 16.3584V14.6284C18 13.6184 17.24 12.7684 16.23 12.6484Z" fill="white"/>
</svg>
