<svg width="24" height="25" viewBox="0 0 24 25" fill="none" xmlns="http://www.w3.org/2000/svg">
<g id="basil:vk-solid">
<path id="Vector" d="M21.504 19.2695H19.222C18.359 19.2695 18.099 18.5705 16.552 17.0225C15.2 15.7195 14.629 15.5575 14.287 15.5575C13.814 15.5575 13.685 15.6875 13.685 16.3385V18.3905C13.685 18.9455 13.505 19.2705 12.055 19.2705C10.6483 19.176 9.28416 18.7487 8.07497 18.0237C6.86578 17.2987 5.84612 16.2968 5.1 15.1005C3.32839 12.8955 2.09571 10.3076 1.5 7.54252C1.5 7.20052 1.63 6.89052 2.282 6.89052H4.562C5.148 6.89052 5.359 7.15152 5.589 7.75452C6.696 11.0125 8.585 13.8465 9.352 13.8465C9.646 13.8465 9.774 13.7165 9.774 12.9835V9.62752C9.677 8.09652 8.864 7.96752 8.864 7.41352C8.87428 7.26736 8.94114 7.13097 9.05037 7.03331C9.15961 6.93565 9.30261 6.88443 9.449 6.89052H13.033C13.523 6.89052 13.685 7.13452 13.685 7.72052V12.2505C13.685 12.7395 13.895 12.9015 14.043 12.9015C14.337 12.9015 14.563 12.7395 15.102 12.2015C16.2574 10.7925 17.2013 9.22268 17.904 7.54152C17.9759 7.33967 18.1119 7.16689 18.2912 7.04953C18.4705 6.93218 18.6832 6.87668 18.897 6.89152H21.178C21.862 6.89152 22.007 7.23352 21.862 7.72152C21.0324 9.57993 20.0058 11.344 18.8 12.9835C18.554 13.3585 18.456 13.5535 18.8 13.9935C19.026 14.3355 19.826 15.0035 20.363 15.6385C21.145 16.4185 21.794 17.3205 22.285 18.3085C22.481 18.9445 22.155 19.2695 21.504 19.2695Z" fill="white"/>
</g>
</svg>
